<svg width="508" height="350" viewBox="0 0 508 350" fill="none" xmlns="http://www.w3.org/2000/svg">
<g filter="url(#filter0_d_101_40)">
<rect x="4" width="500" height="341.163" rx="37" fill="url(#paint0_linear_101_40)"/>
</g>
<rect x="415" y="243" width="44.3077" height="24" rx="5" fill="url(#paint1_radial_101_40)"/>
<path fill-rule="evenodd" clip-rule="evenodd" d="M437.154 243.239L432.231 249.511C432.231 249.511 434.2 254.999 432.231 259.703L437.154 266.759L442.077 259.703C442.077 259.703 440.108 255.783 442.077 249.511C442.077 249.511 437.154 243.239 437.154 243.239Z" stroke="#C7C7B6" stroke-width="1.3" stroke-linejoin="bevel"/>
<path d="M415 249.799H432.231" stroke="#C7C7B6" stroke-width="1.3" stroke-linejoin="bevel"/>
<path d="M441.584 249.799H459.307" stroke="#C7C7B6" stroke-width="1.3" stroke-linejoin="bevel"/>
<path d="M415 259.399H432.231" stroke="#C7C7B6" stroke-width="1.3" stroke-linejoin="bevel"/>
<path d="M441.584 259.399H459.307" stroke="#C7C7B6" stroke-width="1.3" stroke-linejoin="bevel"/>
<path d="M40.1987 65.866L82 41.7321L123.801 65.866V114.134L82 138.268L40.1987 114.134V65.866Z" stroke="#D8D8D8" stroke-width="3"/>
<path d="M48.3322 67.5148L47.0331 68.2648L48.5331 70.8629L49.8322 70.1129L48.3322 67.5148ZM49.8322 70.1129L82.6678 51.1552L81.1678 48.5572L48.3322 67.5148L49.8322 70.1129Z" fill="#D8D8D8"/>
<line x1="48.5" y1="68" x2="48.5" y2="113" stroke="#D8D8D8" stroke-width="3"/>
<path d="M38.816 260.24C38.128 260.24 37.448 260.128 36.776 259.904C36.12 259.664 35.584 259.36 35.168 258.992L36.008 257.408C36.328 257.712 36.736 257.96 37.232 258.152C37.744 258.328 38.248 258.416 38.744 258.416C39.688 258.416 40.368 258.096 40.784 257.456C41.216 256.8 41.432 255.736 41.432 254.264V243.2H43.64V254.648C43.64 256.584 43.256 258 42.488 258.896C41.72 259.792 40.496 260.24 38.816 260.24ZM52.2423 260.24C51.0583 260.24 50.0263 259.992 49.1463 259.496C48.2823 258.984 47.6103 258.256 47.1303 257.312C46.6663 256.368 46.4343 255.264 46.4343 254C46.4343 252.736 46.6663 251.632 47.1303 250.688C47.6103 249.744 48.2823 249.024 49.1463 248.528C50.0263 248.016 51.0583 247.76 52.2423 247.76C54.0343 247.76 55.4503 248.32 56.4903 249.44C57.5463 250.56 58.0743 252.08 58.0743 254C58.0743 255.92 57.5463 257.44 56.4903 258.56C55.4503 259.68 54.0343 260.24 52.2423 260.24ZM52.2423 258.68C53.4263 258.68 54.3543 258.264 55.0263 257.432C55.6983 256.6 56.0343 255.456 56.0343 254C56.0343 252.544 55.6983 251.4 55.0263 250.568C54.3543 249.736 53.4263 249.32 52.2423 249.32C51.0743 249.32 50.1543 249.736 49.4823 250.568C48.8103 251.4 48.4743 252.544 48.4743 254C48.4743 255.456 48.8103 256.6 49.4823 257.432C50.1543 258.264 51.0743 258.68 52.2423 258.68ZM60.3937 242.192H62.4337V249.872C62.8017 249.216 63.3377 248.704 64.0417 248.336C64.7617 247.952 65.5617 247.76 66.4417 247.76C67.8497 247.76 68.9377 248.232 69.7057 249.176C70.4737 250.104 70.8577 251.424 70.8577 253.136V260H68.8177V253.112C68.8177 251.88 68.5777 250.944 68.0977 250.304C67.6337 249.648 66.9617 249.32 66.0817 249.32C65.3937 249.32 64.7697 249.496 64.2097 249.848C63.6497 250.2 63.2097 250.696 62.8897 251.336C62.5857 251.96 62.4337 252.664 62.4337 253.448V260H60.3937V242.192ZM73.7525 251.024C73.7525 249.504 73.7205 248.496 73.6565 248H75.5525C75.6165 248.528 75.6485 249.24 75.6485 250.136H75.7205C76.0725 249.4 76.6085 248.824 77.3285 248.408C78.0645 247.976 78.8805 247.76 79.7765 247.76C81.1845 247.76 82.2405 248.216 82.9445 249.128C83.6485 250.04 84.0005 251.4 84.0005 253.208V260H81.9605V253.184C81.9605 251.904 81.7445 250.952 81.3125 250.328C80.8805 249.704 80.2245 249.392 79.3445 249.392C78.6725 249.392 78.0645 249.568 77.5205 249.92C76.9765 250.256 76.5525 250.736 76.2485 251.36C75.9445 251.968 75.7925 252.656 75.7925 253.424V260H73.7525V251.024ZM93.2643 243.2H98.5923C100.784 243.2 102.432 243.88 103.536 245.24C104.656 246.6 105.216 248.608 105.216 251.264C105.216 253.344 104.968 255.024 104.472 256.304C103.976 257.568 103.192 258.504 102.12 259.112C101.064 259.704 99.6643 260 97.9203 260H93.2643V243.2ZM98.3043 258.176C99.9363 258.176 101.128 257.624 101.88 256.52C102.632 255.416 103.008 253.664 103.008 251.264C103.008 249.136 102.64 247.568 101.904 246.56C101.168 245.536 100.032 245.024 98.4963 245.024H95.4723V258.176H98.3043ZM112.945 260.24C111.761 260.24 110.729 259.992 109.849 259.496C108.985 258.984 108.313 258.256 107.833 257.312C107.369 256.368 107.137 255.264 107.137 254C107.137 252.736 107.369 251.632 107.833 250.688C108.313 249.744 108.985 249.024 109.849 248.528C110.729 248.016 111.761 247.76 112.945 247.76C114.737 247.76 116.153 248.32 117.193 249.44C118.249 250.56 118.777 252.08 118.777 254C118.777 255.92 118.249 257.44 117.193 258.56C116.153 259.68 114.737 260.24 112.945 260.24ZM112.945 258.68C114.129 258.68 115.057 258.264 115.729 257.432C116.401 256.6 116.737 255.456 116.737 254C116.737 252.544 116.401 251.4 115.729 250.568C115.057 249.736 114.129 249.32 112.945 249.32C111.777 249.32 110.857 249.736 110.185 250.568C109.513 251.4 109.177 252.544 109.177 254C109.177 255.456 109.513 256.6 110.185 257.432C110.857 258.264 111.777 258.68 112.945 258.68ZM131.201 254.792H122.561C122.673 256.008 123.033 256.936 123.641 257.576C124.249 258.2 125.089 258.512 126.161 258.512C127.601 258.512 128.745 257.944 129.593 256.808L130.745 257.912C130.281 258.648 129.633 259.224 128.801 259.64C127.985 260.04 127.081 260.24 126.089 260.24C124.313 260.24 122.937 259.696 121.961 258.608C120.985 257.52 120.497 255.992 120.497 254.024C120.497 252.072 120.985 250.544 121.961 249.44C122.953 248.32 124.313 247.76 126.041 247.76C127.657 247.76 128.921 248.312 129.833 249.416C130.745 250.504 131.201 252.032 131.201 254V254.792ZM129.329 253.112C129.329 251.96 129.025 251.056 128.417 250.4C127.825 249.744 127.001 249.416 125.945 249.416C124.953 249.416 124.161 249.752 123.569 250.424C122.993 251.096 122.657 252.048 122.561 253.28H129.329V253.112Z" fill="#D8D8D8"/>
<path d="M420.889 43.9656H437.112V73.1158H420.889V43.9656Z" fill="#FF5F00"/>
<path d="M409.919 87.7883V84.6982C409.919 83.5135 409.198 82.7411 407.962 82.7411C407.344 82.7411 406.674 82.9471 406.211 83.6167C405.85 83.0501 405.335 82.7411 404.563 82.7411C404.048 82.7411 403.533 82.8955 403.121 83.4621V82.8441H402.039V87.7883H403.121V85.0586C403.121 84.1833 403.584 83.7711 404.305 83.7711C405.026 83.7711 405.387 84.2347 405.387 85.0586V87.7883H406.468V85.0586C406.468 84.1833 406.983 83.7711 407.653 83.7711C408.374 83.7711 408.734 84.2347 408.734 85.0586V87.7883H409.919V87.7883ZM425.936 82.8441H424.185V81.3506H423.104V82.8441H422.125V83.8224H423.103V86.0888C423.103 87.2219 423.567 87.8912 424.803 87.8912C425.267 87.8912 425.781 87.7369 426.142 87.5309L425.833 86.6037C425.524 86.8097 425.164 86.8613 424.906 86.8613C424.391 86.8613 424.185 86.5523 424.185 86.0371V83.8224H425.936V82.8441V82.8441ZM435.104 82.7409C434.486 82.7409 434.074 83.0501 433.816 83.4621V82.8441H432.734V87.7883H433.816V85.0072C433.816 84.1833 434.176 83.7197 434.846 83.7197C435.052 83.7197 435.31 83.7713 435.516 83.8227L435.824 82.7928C435.618 82.7411 435.31 82.7411 435.104 82.7411V82.7409ZM421.249 83.2561C420.734 82.8955 420.013 82.7411 419.241 82.7411C418.005 82.7411 417.181 83.3591 417.181 84.3376C417.181 85.1618 417.799 85.6252 418.88 85.7798L419.395 85.8314C419.962 85.9342 420.271 86.0888 420.271 86.3464C420.271 86.7067 419.859 86.9643 419.138 86.9643C418.417 86.9643 417.85 86.7067 417.49 86.4493L416.975 87.2733C417.541 87.6853 418.314 87.8912 419.086 87.8912C420.528 87.8912 421.352 87.2219 421.352 86.2947C421.352 85.4192 420.683 84.9556 419.653 84.8012L419.138 84.7496C418.674 84.698 418.314 84.5952 418.314 84.2863C418.314 83.9257 418.674 83.7197 419.241 83.7197C419.859 83.7197 420.477 83.9771 420.786 84.1317L421.249 83.2561V83.2561ZM449.988 82.7411C449.37 82.7411 448.958 83.0501 448.7 83.4621V82.8441H447.618V87.7883H448.7V85.0072C448.7 84.1833 449.061 83.7197 449.73 83.7197C449.936 83.7197 450.194 83.7713 450.4 83.8227L450.709 82.7928C450.503 82.7411 450.194 82.7411 449.988 82.7411V82.7411ZM436.185 85.3162C436.185 86.8097 437.215 87.8912 438.812 87.8912C439.533 87.8912 440.048 87.7369 440.563 87.3249L440.048 86.4493C439.636 86.7583 439.224 86.9127 438.76 86.9127C437.885 86.9127 437.267 86.2947 437.267 85.3162C437.267 84.3893 437.885 83.7711 438.76 83.7197C439.224 83.7197 439.636 83.8741 440.048 84.1833L440.563 83.3077C440.048 82.8955 439.533 82.7411 438.812 82.7411C437.215 82.7411 436.185 83.8227 436.185 85.3162ZM446.177 85.3162V82.8441H445.095V83.4621C444.734 82.9987 444.219 82.7411 443.55 82.7411C442.159 82.7411 441.078 83.8227 441.078 85.3162C441.078 86.8097 442.159 87.8912 443.55 87.8912C444.271 87.8912 444.786 87.6339 445.095 87.1703V87.7883H446.177V85.3162V85.3162ZM442.211 85.3162C442.211 84.4406 442.777 83.7197 443.704 83.7197C444.58 83.7197 445.198 84.3893 445.198 85.3162C445.198 86.1917 444.58 86.9127 443.704 86.9127C442.777 86.8611 442.211 86.1917 442.211 85.3162V85.3162ZM429.284 82.7411C427.842 82.7411 426.812 83.7711 426.812 85.3162C426.812 86.8613 427.841 87.8912 429.335 87.8912C430.056 87.8912 430.777 87.6853 431.344 87.2219L430.829 86.4493C430.417 86.7583 429.902 86.9643 429.387 86.9643C428.717 86.9643 428.048 86.6553 427.893 85.7795H431.55V85.3678C431.602 83.7711 430.674 82.7411 429.284 82.7411H429.284ZM429.284 83.6681C429.953 83.6681 430.417 84.0803 430.52 84.8528H427.945C428.048 84.1833 428.511 83.6681 429.284 83.6681ZM456.116 85.3162V80.887H455.035V83.4621C454.674 82.9987 454.159 82.7411 453.49 82.7411C452.099 82.7411 451.018 83.8227 451.018 85.3162C451.018 86.8097 452.099 87.8912 453.49 87.8912C454.211 87.8912 454.726 87.6339 455.035 87.1703V87.7883H456.116V85.3162V85.3162ZM452.151 85.3162C452.151 84.4406 452.717 83.7197 453.644 83.7197C454.52 83.7197 455.138 84.3893 455.138 85.3162C455.138 86.1917 454.52 86.9127 453.644 86.9127C452.717 86.8611 452.151 86.1917 452.151 85.3162V85.3162ZM415.996 85.3162V82.8441H414.915V83.4621C414.554 82.9987 414.039 82.7411 413.369 82.7411C411.979 82.7411 410.897 83.8227 410.897 85.3162C410.897 86.8097 411.979 87.8912 413.369 87.8912C414.091 87.8912 414.606 87.6339 414.915 87.1703V87.7883H415.996V85.3162V85.3162ZM411.979 85.3162C411.979 84.4406 412.546 83.7197 413.472 83.7197C414.348 83.7197 414.966 84.3893 414.966 85.3162C414.966 86.1917 414.348 86.9127 413.472 86.9127C412.546 86.8611 411.979 86.1917 411.979 85.3162V85.3162Z" fill="white"/>
<path d="M421.919 58.5408C421.919 52.6181 424.7 47.3648 428.974 43.9656C425.833 41.4935 421.867 40 417.541 40C407.292 40 399 48.2917 399 58.5408C399 68.7897 407.292 77.0816 417.541 77.0816C421.867 77.0816 425.833 75.5881 428.974 73.1158C424.7 69.7682 421.919 64.4635 421.919 58.5408V58.5408Z" fill="#EB001B"/>
<path d="M459 58.5408C459 68.7897 450.708 77.0816 440.459 77.0816C436.133 77.0816 432.167 75.5881 429.026 73.1158C433.352 69.7168 436.081 64.4635 436.081 58.5408C436.081 52.6181 433.3 47.3648 429.026 43.9656C432.167 41.4935 436.133 40 440.459 40C450.708 40 459 48.3434 459 58.5408H459Z" fill="#F79E1B"/>
<defs>
<filter id="filter0_d_101_40" x="0" y="0" width="508" height="349.163" filterUnits="userSpaceOnUse" color-interpolation-filters="sRGB">
<feFlood flood-opacity="0" result="BackgroundImageFix"/>
<feColorMatrix in="SourceAlpha" type="matrix" values="0 0 0 0 0 0 0 0 0 0 0 0 0 0 0 0 0 0 127 0" result="hardAlpha"/>
<feOffset dy="4"/>
<feGaussianBlur stdDeviation="2"/>
<feComposite in2="hardAlpha" operator="out"/>
<feColorMatrix type="matrix" values="0 0 0 0 0 0 0 0 0 0 0 0 0 0 0 0 0 0 0.25 0"/>
<feBlend mode="normal" in2="BackgroundImageFix" result="effect1_dropShadow_101_40"/>
<feBlend mode="normal" in="SourceGraphic" in2="effect1_dropShadow_101_40" result="shape"/>
</filter>
<linearGradient id="paint0_linear_101_40" x1="504" y1="332.5" x2="4.00001" y2="8.49997" gradientUnits="userSpaceOnUse">
<stop stop-color="#001AA3"/>
<stop offset="1" stop-color="#655FAA"/>
</linearGradient>
<radialGradient id="paint1_radial_101_40" cx="0" cy="0" r="1" gradientUnits="userSpaceOnUse" gradientTransform="translate(440.444 251.742) rotate(146.94) scale(27.9691 26.0075)">
<stop stop-color="white"/>
<stop offset="1" stop-color="#DDDCDA"/>
</radialGradient>
</defs>
</svg>
