<svg width="309" height="100" viewBox="0 0 309 100" fill="none" xmlns="http://www.w3.org/2000/svg">
<path d="M8.19873 25.866L50 1.73205L91.8013 25.866V74.134L50 98.2679L8.19873 74.134V25.866Z" stroke="black" stroke-width="3"/>
<path d="M16.3322 27.5148L15.0331 28.2648L16.5331 30.8629L17.8322 30.1129L16.3322 27.5148ZM17.8322 30.1129L50.6678 11.1552L49.1678 8.55715L16.3322 27.5148L17.8322 30.1129Z" fill="black"/>
<line x1="16.5" y1="28" x2="16.5" y2="73" stroke="black" stroke-width="3"/>
<path d="M134.184 35.856H123.816V32.4H148.92V35.856H138.6V66H134.184V35.856ZM153.654 32.4H163.974C167.622 32.4 170.342 33.152 172.134 34.656C173.926 36.128 174.822 38.368 174.822 41.376C174.822 43.616 174.262 45.52 173.142 47.088C172.022 48.624 170.47 49.664 168.486 50.208V50.304C169.158 50.752 169.702 51.232 170.118 51.744C170.534 52.224 170.886 52.816 171.174 53.52L176.214 66H171.462L167.238 55.152C166.694 53.744 166.038 52.8 165.27 52.32C164.502 51.84 163.302 51.6 161.67 51.6H158.07V66H153.654V32.4ZM163.734 48C168.31 48 170.598 45.888 170.598 41.664C170.598 39.776 170.022 38.368 168.87 37.44C167.718 36.512 165.958 36.048 163.59 36.048H158.07V48H163.734ZM181.544 32.4H201.704V36.048H185.96V46.512H200.024V50.16H185.96V62.352H201.704V66H181.544V32.4ZM208.029 32.4H218.685C223.069 32.4 226.365 33.76 228.573 36.48C230.813 39.2 231.933 43.216 231.933 48.528C231.933 52.688 231.437 56.048 230.445 58.608C229.453 61.136 227.885 63.008 225.741 64.224C223.629 65.408 220.829 66 217.341 66H208.029V32.4ZM218.109 62.352C221.373 62.352 223.757 61.248 225.261 59.04C226.765 56.832 227.517 53.328 227.517 48.528C227.517 44.272 226.781 41.136 225.309 39.12C223.837 37.072 221.565 36.048 218.493 36.048H212.445V62.352H218.109Z" fill="black"/>
</svg>
